<svg width="24" height="25" viewBox="0 0 24 25" fill="none" xmlns="http://www.w3.org/2000/svg">
<path fill-rule="evenodd" clip-rule="evenodd" d="M7.98655 10.6361H17.6586C18.7269 10.6361 19.593 11.5021 19.593 12.5705V20.3081C19.593 21.3764 18.7269 22.2425 17.6586 22.2425H6.05214C4.9838 22.2425 4.11774 21.3764 4.11774 20.3081V12.5705C4.11774 11.5021 4.9838 10.6361 6.05214 10.6361V8.70165C6.05214 5.49662 8.65033 2.89844 11.8554 2.89844C15.0604 2.89844 17.6586 5.49662 17.6586 8.70165H15.7242C15.7242 6.56497 13.992 4.83284 11.8554 4.83284C9.71867 4.83284 7.98655 6.56497 7.98655 8.70165V10.6361ZM12.8226 18.3737C13.3567 18.3737 13.7898 17.9407 13.7898 17.4065V15.4721C13.7898 14.9379 13.3567 14.5049 12.8226 14.5049H10.8882C10.354 14.5049 9.92095 14.9379 9.92095 15.4721V17.4065C9.92095 17.9407 10.354 18.3737 10.8882 18.3737H12.8226Z" fill="white"/>
</svg>
